<svg width="15" height="88" viewBox="0 0 15 88" fill="none" xmlns="http://www.w3.org/2000/svg">
<path d="M13 1C12.6629 4.05015 9.4631 7.93878 9.4631 7.93878C9.4631 7.93878 9.60363 10.4693 5.9262 11.4082C2.37554 12.3147 2.3893 7.93878 2.89457 6.20408C3.39993 5.24036 4.81037 4.33262 6.43174 3.89116C8.71203 3.27028 11.7081 8.19225 12.495 11.4082C13.0265 14.5621 12.495 17.7687 12.495 17.7687C12.495 17.7687 11.4043 21.0694 9.4631 22.9728C7.12049 25.2697 4.51612 24.7912 3.40011 22.9728C2.89484 22.0091 2.18746 19.7347 3.40011 18.3469C4.61276 16.9592 6.93701 16.9977 7.94755 17.1905L10.4739 18.9252C12.2371 21.0944 12.3069 22.3945 12.495 24.7075C12.7863 26.7669 12.8022 27.7936 12.495 29.3333C12.1494 31.6996 11.7781 32.5371 10.9792 33.381C10.8391 35.4467 10.2976 36.3397 8.45282 37.4286C6.18402 38.055 5.04976 37.9032 3.40011 36.2721C2.72641 35.3084 1.78324 33.034 3.40011 31.6463C5.01698 30.2585 7.10543 30.2971 7.94755 30.4898C9.71056 30.7352 10.4939 31.3267 11.4848 33.381C11.986 35.6151 12.2008 36.8826 12.495 39.1633C12.5375 41.6956 12.3344 42.8717 11.4848 44.3673C10.5212 46.9215 9.92039 48.2044 8.45282 49.5714C7.44239 50.1497 5.11838 50.9592 3.90573 49.5714C2.69308 48.1837 2.72676 45.5238 2.89519 44.3673C4.07661 43.2698 4.58566 42.9718 5.42154 42.6327C6.71093 42.5911 7.54547 42.7499 9.4631 43.7891C10.6607 46.4338 10.9767 48.1531 11.4848 51.3061C12.1196 52.974 12.3308 53.9989 12.495 55.932C11.9871 59.3604 11.5049 60.3528 10.4739 61.1361C9.09613 62.9224 8.2524 63.6825 6.43174 64.0272C4.49575 64.1592 3.6328 63.6675 2.38992 61.7143C1.66257 59.6865 2.02249 58.546 2.89519 56.5102C4.12971 56.0954 4.88824 55.9471 6.43174 55.932C7.84935 56.2177 8.49423 56.7922 9.4631 58.2449C10.7269 60.909 11.4579 62.3898 12.495 65.1837C12.6978 68.1399 12.6607 69.3192 12.495 70.966C12.1243 74.1456 11.7876 75.6307 10.9792 77.9048C9.68157 79.0126 8.88648 79.4016 7.44263 79.6395C5.66093 79.5799 4.64039 79.6791 3.40011 76.7483C3.0241 75.3936 2.98559 74.6336 3.40011 73.2789C4.25496 71.7549 4.88567 71.1783 6.43174 70.966C8.04714 71.1561 8.91175 71.6355 10.4739 73.2789C12.2736 76.3438 11.7244 78.1693 11.4848 81.3741C11.1222 83.8983 10.6604 84.8679 9.4631 86" stroke="white" stroke-width="3"/>
</svg>
