<svg width="15" height="80" viewBox="0 0 15 80" fill="none" xmlns="http://www.w3.org/2000/svg">
<path d="M12.7722 1C12.6871 3.10432 11.8498 4.00419 9.62428 5.33803C7.01254 6.18214 5.56282 6.78934 2.6989 5.33803C2.00677 3.53601 2.36974 2.86095 5.21722 2.62676C8.79071 2.2116 10.0781 3.35383 12.1426 5.88028C13.0226 7.25296 12.9097 7.95114 12.1426 9.1338C10.6 10.7607 9.58193 11.4676 7.10596 11.8451C5.15237 11.9693 4.14718 11.7455 2.6989 10.2183C2.46061 9.06078 2.96798 8.56864 5.21722 8.0493C10.5044 8.47345 10.6424 9.86893 12.1426 11.8451C12.8526 13.3015 12.8394 14.0185 12.1426 15.0986C11.0378 16.1956 10.5577 16.8998 8.36512 17.2676C5.68689 19.422 3.7051 18.7414 2.6989 16.1831C2.98079 15.0513 3.65603 14.7901 5.21722 14.5563C10.0117 15.1297 10.755 16.4966 12.1426 18.8944C12.8469 21.2185 12.2375 21.9943 10.8834 23.2324C9.39133 23.9135 7.9607 25.5611 7.10596 25.9501C6.25122 26.3392 2.99135 26.1 2.6989 23.2324C2.86003 22.2969 3.14593 21.8448 5.21722 21.6056C9.07544 21.0863 10.7207 21.623 12.1426 24.8592C12.2146 27.0538 12.0894 28.1967 10.8834 29.7394C10.4059 31.3275 10.0258 32.1501 8.36512 32.993C5.5043 33.6754 4.14557 33.5734 2.6989 31.3662C2.87136 30.4488 3.32234 29.9769 5.21722 29.1972C8.43123 28.8582 9.84861 29.7006 12.1426 31.9085C12.6488 34.5055 12.2851 35.6642 10.8834 37.331C9.8756 38.4041 8.26095 38.7875 7.10596 38.9577C4.36633 39.25 3.32769 38.9143 2.6989 37.331C2.95577 35.8586 3.69955 35.55 5.21722 35.162C9.29435 35.7045 10.4873 36.756 12.1426 38.9577C12.8323 41.3991 12.5672 42.58 10.8834 44.3803C9.61099 44.6911 9.62492 44.9225 7.10596 45.4648C4.58699 46.007 2.87798 45.8572 2.6989 43.838C2.89267 42.8675 3.23471 42.4199 5.21722 42.2113C9.12293 42.4008 10.3018 43.241 12.1426 44.9225C13.2337 47.8035 12.5671 48.9739 10.8834 50.8873C9.6196 51.9394 8.82676 52.3019 7.10596 52.5141C4.16724 52.3671 2.41504 52.3438 2.6989 50.3451C3.19443 49.2671 3.66475 48.8381 5.21722 48.7183C9.01625 48.8459 10.5111 49.7215 12.1426 52.5141C12.7342 54.7163 12.3503 55.754 10.8834 57.3944C9.60555 58.2101 8.73571 58.3741 7.10596 58.4789C4.24831 58.7715 3.32126 58.3755 2.6989 56.8521C2.73106 55.5533 3.27102 55.073 5.21722 54.6831C8.61792 55.1486 10.0953 56.0671 12.1426 58.4789C13.2267 61.3493 12.5912 62.3668 10.8834 63.9014C9.91534 64.2236 9.332 64.4198 7.73554 64.9859C4.92821 65.1619 3.59619 64.9629 2.6989 62.8169C2.06097 61.355 2.5335 60.966 5.21722 61.1901C8.77398 61.9854 10.1677 62.9228 12.1426 64.9859C13.2249 67.5094 12.5935 68.4384 10.8834 69.8662C10.0426 70.8096 9.48842 71.272 7.73554 71.493C5.49032 71.3628 4.19883 71.3746 2.6989 69.324C1.85058 68.1985 2.0233 67.6678 5.21722 67.1549C9.39197 67.7637 10.6176 68.9243 12.1426 71.493C12.7301 74.0853 12.2786 75.1989 10.8834 76.9155C9.71946 77.5657 9.03757 77.84 7.73554 78" stroke="white" stroke-width="3"/>
</svg>
