<svg width="25" height="82" viewBox="0 0 25 82" fill="none" xmlns="http://www.w3.org/2000/svg">
<path d="M20.787 2C19.3496 4.31905 18.493 5.64022 16.787 8.03012C15.7979 9.83864 15.101 10.7823 13.287 12.2048C11.2733 12.8095 8.12883 14.2972 6.28699 12.2048C3.66211 9.22294 6.28405 6.49423 8.28699 5.71084C10.4098 4.63719 11.4637 4.91556 13.287 5.71084C16.493 7.55366 18.2866 8.59353 20.787 12.2048C21.3096 14.3405 21.2392 15.4409 20.787 17.3072C19.8888 20.8414 18.916 22.1173 16.787 23.8012C14.728 26.4858 13.39 27.1926 10.7868 27.512C7.85233 28.1413 6.76198 27.2984 5.28684 24.7289C5.47289 21.7671 6.07889 20.7675 8.28699 20.0904C9.9772 19.5866 11.0035 19.451 13.287 20.0904C16.9449 21.7216 18.1221 24.1505 20.787 27.512C21.6204 29.0582 21.4905 31.7212 20.787 34.006C19.8656 36.9985 16.7871 40.436 14.7868 40.9639C12.6217 42.2058 11.404 42.893 8.28699 42.3554C6.00916 40.9319 4.98747 40.0858 5.28684 38.1807C5.18938 36.4211 5.56716 35.478 8.28699 34.006C11.577 33.6484 12.9423 34.0951 14.7868 35.8614C17.3992 38.016 18.8188 39.288 20.787 42.3554C22.0967 45.9082 21.9112 47.6933 20.787 50.7048C19.2465 52.2574 18.3731 53.0309 16.787 53.9518C13.3554 56.7429 11.5183 56.9892 8.28699 56.7349C6.37823 55.9665 5.55235 55.4273 5.28684 53.9518C5.21087 51.2948 5.80092 50.2234 8.28699 49.3133C11.8299 48.4049 12.8675 49.268 14.7868 50.7048C16.9517 53.0431 18.0921 54.3571 19.2868 56.7349C20.0646 59.549 20.0226 60.9508 19.2868 63.2289C18.3961 65.595 17.7881 67.4036 16.787 68.3313C15.7859 69.259 12.2868 71.5783 8.28699 71.5783C4.28713 71.5783 4.69168 71.4794 3.28684 70.1867C2.55732 67.2534 3.21769 66.1465 5.28684 64.6205C8.56539 63.3907 10.2998 63.5675 13.287 64.6205C16.2332 66.4541 18.1676 67.3224 19.2868 70.1867C19.7681 72.3998 19.7656 73.4133 19.2868 74.8253C18.094 77.2636 17.3842 78.1654 14.7868 79" stroke="white" stroke-width="5"/>
</svg>
