<svg width="28" height="81" viewBox="0 0 28 81" fill="none" xmlns="http://www.w3.org/2000/svg">
<path d="M24.5736 1C24.3759 3.46775 23.7743 5.12166 22.4745 6.90871C21.0373 8.8847 19.7098 11.0184 17.8387 12.5897C16.8642 13.4081 15.5804 14.0375 13.5736 14.6613C11.6334 15.3944 10.2213 15.7297 8.68133 15.5597C6.72456 15.3438 5.57357 13.3835 5.57357 11.4148V11.4148C5.57357 9.59239 6.58283 7.91985 8.19515 7.07035L8.98605 6.65364C10.3333 5.9438 11.9107 5.67775 13.3454 6.18818C14.8356 6.71832 15.8175 7.37986 17.0736 8.45161L19.4451 11.1292C21.5034 13.4531 23.6336 16.2221 23.2466 19.3022C23.2238 19.4831 23.1919 19.6597 23.1505 19.8339C22.9097 20.8471 22.424 21.7889 22.1099 22.7818C22.0719 22.902 22.0346 23.0191 21.998 23.1335C20.9118 26.5242 18.2777 29.1486 15.0431 30.6365L12.4169 31.8445C11.5417 32.2471 10.5623 32.394 9.6153 32.2173C9.47362 32.1908 9.3355 32.1633 9.20085 32.1339C6.39248 31.5204 5.36486 25.1946 7.57357 23.3548V23.3548C10.9186 20.5685 15.091 23.6591 18.2492 27.0521C21.3567 30.3906 23.3434 34.8328 22.7648 39.3569C22.709 39.7929 22.6445 40.2504 22.5736 40.7419C22.4891 41.3671 22.3966 41.9201 22.288 42.4227C21.5757 45.7184 18.7827 48.2599 15.5783 49.3092C14.452 49.678 13.0457 49.9883 11.0736 50.2634C8.24044 50.2634 4.09265 49.7811 4.07388 46.9516C4.06221 45.1917 5.22496 43.6424 6.76327 42.5255C9.27304 40.7032 12.8072 40.9912 15.4805 42.5638V42.5638C16.623 43.2358 17.5215 44.1342 18.4113 45.1166L22.0434 49.1261C23.663 50.9141 24.4356 53.6629 24.4557 56.0753V56.0753C24.4734 58.1911 23.894 59.8948 22.6524 61.608L20.9387 63.9728C20.363 64.7673 19.7297 65.5225 18.999 66.1773C17.6598 67.3775 16.462 68.1721 14.8625 68.5806C12.4133 69.206 9.98116 68.6583 7.71674 67.5347V67.5347C5.24915 66.3103 2.42554 63.9045 3.08661 61.2304C3.40001 59.9626 4.61628 58.957 7.57357 58.957C9.09728 58.957 10.2663 59.0282 11.1543 59.1434C12.9847 59.381 14.4547 61.4798 16.1269 62.2612V62.2612C16.5749 62.4705 17.2436 62.8748 17.5715 63.245L19.9691 65.952C21.6774 67.8807 23.3787 70.1345 22.9061 72.6672V72.6672C22.7679 73.4079 22.4087 74.2031 22.0042 74.8388C20.7418 76.8227 19.4778 77.5202 17.0736 78" stroke="white" stroke-width="5"/>
</svg>
