<svg width="29" height="80" viewBox="0 0 29 80" fill="none" xmlns="http://www.w3.org/2000/svg">
<path d="M26 1C25.9227 5.08091 25.3306 7.26795 22.9859 10.9602L20.6179 14.5343C19.0217 16.9434 17.4467 18.6373 14.6608 19.4057V19.4057C11.9623 20.15 7.15355 19.9208 5.15833 17.9575V17.9575C3.10913 15.9411 2.80236 13.0448 4.16472 10.5131C4.84179 9.25496 6.45257 8.36469 9.72402 8.66169C11.5584 8.82823 13.019 9.03624 14.1735 9.26114C16.9785 9.80757 19.334 12.076 21.4025 14.0478V14.0478C22.4468 15.0433 23.298 16.2361 23.7896 17.5926C24.3145 19.0411 24.6247 20.2564 24.7558 21.5752C24.9398 23.426 24.9639 25.2933 25.0821 27.1494C25.1025 27.4711 25.1164 27.7792 25.1238 28.0785C25.1952 30.9649 24.1685 33.7389 22.9359 36.3499L21.1776 40.0746C20.1927 41.8416 19.2667 43.0223 17.7424 44.0239C15.433 45.5415 12.4646 45.8081 9.8095 45.0421C9.1574 44.8539 8.53008 44.6212 7.89385 44.3146C5.80527 43.3081 4.38948 41.1803 4.22147 38.868V38.868C4.1141 37.3903 4.20672 35.7088 5.35799 34.7762C6.71283 33.6788 9.13661 32.6464 11.5326 32.4129C13.5602 32.2153 16.5278 33.8574 18.4044 35.5371C19.6155 36.621 20.4708 38.041 21.3998 39.3746C23.2203 41.9881 24.2583 44.0044 24.7945 47.3532C25.436 51.0332 25.4763 52.9029 24.7945 55.7811C24.2818 59.4274 23.2963 61.2385 21.3542 63.2522C20.4654 64.1738 19.4284 64.9375 18.3477 65.6242V65.6242C13.9563 68.415 7.87896 70.4437 4.28984 66.6766C3.70732 66.0652 3.2818 65.3707 3.0932 64.592C2.58065 62.4758 4.23976 60.4055 6.59126 58.9189C9.58474 57.0265 13.4927 56.7909 16.6792 58.3364C17.8851 58.9213 18.8623 59.689 19.972 60.7612C22.7712 63.5155 24.11 65.159 24.7945 68.806C25.7219 72.9463 24.0975 74.763 21.1776 78" stroke="white" stroke-width="5"/>
</svg>
