<svg width="14" height="82" viewBox="0 0 14 82" fill="none" xmlns="http://www.w3.org/2000/svg">
<path d="M4.5 2C6.81625 4.70378 8.06242 6.57493 8.8019 8.81093C9.45604 10.7889 10.0253 12.8118 10.3929 14.8624C10.4954 15.434 10.5289 15.9388 10.4969 16.4061C10.3663 18.3157 8.78581 19.7298 7.64882 21.2694C5.81553 23.752 4.69614 26.2116 4.52345 26.6016C4.50745 26.6378 4.4923 26.6729 4.47722 26.7094C4.25285 27.2533 2.48875 31.7557 4.5 34.2414L9.5 42.5862C10.4874 44.7699 10.8208 46.2321 10.67 47.5294C10.423 49.654 8.48533 51.0527 6.69809 52.2278C6.37608 52.4396 6.06581 52.6546 5.76255 52.8791C3.08748 54.8593 2.59714 58.5233 3.59379 61.6988L3.68363 61.9851C4.21601 63.6814 5.23723 65.1828 6.61929 66.3011V66.3011C9.79384 68.87 11.2962 73.6581 8.33989 76.4754C7.33989 77.4284 6.12493 78.2174 4.5 79" stroke="white" stroke-width="5"/>
</svg>
