<svg width="11" height="81" viewBox="0 0 11 81" fill="none" xmlns="http://www.w3.org/2000/svg">
<path d="M8.5001 2C5.13165 3.44259 3.0001 4.27811 3.0001 5.64497C3.0001 7.01183 7.0001 7.92308 8.5001 9.74556C10.0001 11.568 3.0001 10.6568 3.0001 12.0237C3.0001 13.3905 8.5001 13.3905 8.5001 15.213C8.5001 17.0355 3.0001 16.5799 3.0001 18.4024C3.0001 20.2249 7.5 21.1361 8.5001 22.503C9.5002 23.8698 3.0001 23.8698 3.0001 25.6923C3.0001 27.5148 7.5001 26.6036 8.5001 28.426C9.5001 30.2485 4.0001 31.1598 3.0001 32.5266C2.0001 33.8935 8.5001 33.8935 8.5001 35.716C8.5001 37.5385 3.0001 37.5385 3.0001 38.9053C3.0001 40.2722 8.5001 40.7278 8.5001 42.5503C8.5001 44.3728 3.0001 44.3728 3.0001 46.1953C3.0001 48.0178 8.5001 48.4734 8.5001 49.8402C8.5001 51.2071 2 51.6627 2 53.0296C2 54.3964 8.5001 54.8521 8.5001 56.2189C8.5001 57.5858 2 58.0414 2 59.4083C2 60.7751 8.5001 61.6864 8.5001 63.0533C8.5001 64.4201 2 64.4201 2 66.2426C2 68.0651 8.5001 68.5207 8.5001 69.8876C8.5001 71.2544 2 71.7101 2 73.0769C2 74.4438 8.5001 75.355 8.5001 76.7219C8.5001 78.0888 2 79 2 79" stroke="white" stroke-width="3"/>
</svg>
