<svg width="16" height="81" viewBox="0 0 16 81" fill="none" xmlns="http://www.w3.org/2000/svg">
<path d="M4.12647 2C7.6348 6.81201 9.23967 9.54767 11.1265 14.5288C11.9209 17.2344 12.2163 19.1167 12.163 20.7589C12.0584 23.9793 10.0802 26.7626 8.24587 29.4116C6.70761 31.633 5.53691 33.6324 4.12647 36.4542C2.72806 38.8783 2.52441 40.2889 4.12647 42.9797C4.84569 44.378 5.50488 45.4932 6.19065 46.4469C8.79045 50.0626 12.9331 53.3638 13.1581 57.8114V57.8114C13.2306 59.2467 13.2405 60.4033 13.2601 61.8403C13.2972 64.5621 12.7066 66.4887 11.1265 69.3424L4.12647 79" stroke="white" stroke-width="5"/>
</svg>
