<svg width="670" height="973" viewBox="0 0 670 973" fill="none" xmlns="http://www.w3.org/2000/svg">
<mask id="path-1-inside-1_716_1198" fill="white">
<path d="M-71.5276 92.5227C-118.511 -128 488.5 -60 626 112C763.5 284 537.589 274.234 499.794 476.383C528.688 632.619 531.677 664.217 417.96 797.496C329.37 874.814 114.747 903.209 -14.8652 912.03C-14.6422 943.633 -14.9804 963.702 -15.8202 967.929C-20.4148 991.054 -79.5671 926.489 -108.919 915.4C-117.636 915.211 -121.248 914.706 -118.511 914.058C-115.914 913.443 -112.658 913.988 -108.919 915.4C-92.649 915.754 -58.5957 915.006 -14.8652 912.03C-16.0179 748.699 -32.161 277.294 -71.5276 92.5227Z"/>
</mask>
<path d="M-71.5276 92.5227L-462.747 175.874L-71.5276 92.5227ZM626 112L938.436 -137.767V-137.767L626 112ZM499.794 476.383L106.607 402.872L92.9379 475.985L106.464 549.124L499.794 476.383ZM417.96 797.496L680.98 1098.86L703.151 1079.51L722.251 1057.12L417.96 797.496ZM-118.511 914.058L-210.65 524.815L-210.651 524.815L-118.511 914.058ZM-15.8202 967.929L-408.151 889.978L-408.151 889.978L-15.8202 967.929ZM319.692 9.17092C333.305 73.0641 326.853 161.255 274.053 241.967C228.266 311.959 171.55 339.459 152.719 347.339C132.229 355.913 123.493 355.349 134.18 354.223C142.953 353.299 158.884 352.666 181.292 354.169C227.699 357.281 278.353 367.892 317.202 381.844C336.101 388.63 345.876 393.955 348.058 395.271C352.093 397.705 335.088 388.692 313.564 361.767L938.436 -137.767C834.606 -267.649 686.555 -335.537 587.591 -371.077C475.422 -411.36 351.478 -436.216 234.817 -444.038C128.141 -451.192 -20.0707 -447.577 -156.111 -390.648C-227.39 -360.819 -324.896 -303.796 -395.422 -195.986C-472.962 -77.4547 -488.106 56.8505 -462.747 175.874L319.692 9.17092ZM313.564 361.767C325.134 376.24 259.498 304.43 271.288 176.392C277.111 113.155 299.836 65.1537 318.267 35.973C334.271 10.635 348.597 -2.7876 344.791 1.04499C344.76 1.07687 153.803 150.435 106.607 402.872L892.981 549.894C883.58 600.182 824.476 653.348 912.474 564.726C940.703 536.296 1051.56 427.366 1067.92 249.748C1084.58 68.8487 995.616 -66.2403 938.436 -137.767L313.564 361.767ZM106.464 549.124C108.237 558.708 109.764 567.03 111.128 574.658C112.486 582.26 113.577 588.584 114.465 594.026C115.353 599.462 115.958 603.523 116.371 606.561C116.784 609.591 116.943 611.148 116.982 611.557C117.074 612.533 116.492 607.132 116.827 597.538C116.998 592.622 117.407 586.676 118.242 579.899C119.081 573.088 120.303 565.837 121.991 558.285C123.68 550.728 125.718 543.404 128.031 536.408C130.338 529.435 132.769 523.237 135.114 517.89C139.767 507.277 143.712 500.855 144.65 499.371C145.441 498.12 144.057 500.444 138.633 507.473C133.222 514.485 125.329 524.202 113.669 537.868L722.251 1057.12C778.398 991.319 869.059 883.397 902.722 732.811C934.027 592.768 903.079 457.47 893.125 403.642L106.464 549.124ZM154.939 496.132C180.152 474.127 196.107 470.05 184.194 474.757C175.254 478.289 157.791 483.874 130.704 489.854C76.1411 501.899 11.5156 509.309 -42.0239 512.953L12.2935 1311.11C88.3663 1305.93 195.858 1294.73 303.157 1271.05C391.923 1251.45 555.16 1208.67 680.98 1098.86L154.939 496.132ZM-42.0238 512.953C-59.2621 514.126 -73.9369 514.813 -85.0424 515.17C-97.2048 515.561 -101.975 515.457 -100.238 515.495L-117.601 1315.31C-85.0491 1316.01 -38.081 1314.53 12.2934 1311.11L-42.0238 512.953ZM-100.238 515.495C-99.5036 515.511 -96.6667 515.576 -92.4084 515.811C-90.1249 515.938 -78.2869 516.563 -62.5864 518.76C-56.2305 519.649 -36.332 522.495 -11.4195 529.45C0.408386 532.752 25.9155 540.37 56.2102 555.158C74.428 564.051 157.227 604.151 218.073 699.767C253.954 756.151 283.383 834.345 280.383 927.354C277.439 1018.65 244.341 1090.81 211.481 1139.18C154.783 1222.64 82.6918 1260.11 65.6832 1268.98C19.1742 1293.23 -21.5656 1302.16 -26.3715 1303.3L-210.651 524.815C-216.141 526.115 -257.367 535.206 -304.168 559.608C-321.323 568.552 -393.512 606.097 -450.26 689.629C-483.144 738.035 -516.256 810.233 -519.201 901.568C-522.202 994.614 -492.762 1072.84 -456.859 1129.26C-395.968 1224.95 -313.077 1265.12 -294.72 1274.08C-264.287 1288.93 -238.594 1296.62 -226.535 1299.99C-201.16 1307.07 -180.615 1310.04 -173.434 1311.04C-145.834 1314.9 -121.292 1315.23 -117.6 1315.31L-100.238 515.495ZM-26.3725 1303.3C-86.6518 1317.57 -138.141 1314.74 -172.269 1309.72C-206.637 1304.68 -233.466 1295.94 -250.275 1289.59L32.4366 541.21C2.21114 529.792 -92.1864 496.773 -210.65 524.815L-26.3725 1303.3ZM-250.276 1289.59C-281.829 1277.67 -303.06 1264.51 -309.189 1260.67C-313.596 1257.91 -316.799 1255.72 -318.539 1254.51C-320.327 1253.26 -321.354 1252.5 -321.417 1252.45C-321.498 1252.39 -321.068 1252.71 -319.914 1253.6C-318.746 1254.5 -317.269 1255.66 -315.108 1257.36C-311.87 1259.9 -304.009 1266.13 -296.94 1271.57C-292.816 1274.74 -248.024 1310.89 -191.486 1336.18C-173.147 1344.38 -71.9816 1391.29 59.0688 1364.89C138.739 1348.83 220.612 1307.08 284.211 1234.12C343.428 1166.2 366.924 1094.13 376.511 1045.88L-408.151 889.978C-399.138 844.616 -376.644 774.758 -318.812 708.421C-256.598 637.056 -176.496 596.272 -98.9404 580.646C27.881 555.094 123.442 600.665 135.13 605.892C178.368 625.23 205.676 648.887 190.769 637.422C188.322 635.54 186.281 633.913 179.559 628.625C174.251 624.448 165.644 617.695 156.145 610.627C147.805 604.421 98.2122 566.058 32.4377 541.21L-250.276 1289.59ZM376.511 1045.88C380.931 1023.63 382.502 1005.56 382.936 1000.62C383.628 992.74 384.01 985.997 384.23 981.54C384.675 972.507 384.882 963.849 384.998 957.054C385.237 942.997 385.247 926.502 385.125 909.207L-414.855 914.853C-414.754 929.161 -414.802 938.502 -414.886 943.438C-414.932 946.138 -414.953 945.265 -414.801 942.172C-414.727 940.684 -414.508 936.45 -413.994 930.599C-413.73 927.597 -413.281 922.924 -412.555 917.143C-411.902 911.937 -410.577 902.187 -408.151 889.978L376.511 1045.88ZM385.125 909.207C384.498 820.453 379.94 655.18 370.499 487.793C361.594 329.897 346.733 136.09 319.692 9.17091L-462.747 175.874C-450.421 233.726 -437.528 368.008 -428.232 532.84C-419.471 688.181 -415.382 840.276 -414.855 914.853L385.125 909.207Z" fill="#B55B49" mask="url(#path-1-inside-1_716_1198)"/>
</svg>
