<svg width="26" height="25" viewBox="0 0 26 25" fill="none" xmlns="http://www.w3.org/2000/svg">
<path d="M19.0593 14.7314C18.7449 14.5801 17.2139 13.8698 16.9277 13.7684C16.6416 13.6716 16.4338 13.6209 16.2253 13.9198C16.0215 14.2112 15.4209 14.8783 15.2375 15.0728C15.054 15.2673 14.8737 15.2823 14.5641 15.1503C14.2497 14.999 13.2454 14.6882 12.053 13.6716C11.1217 12.8837 10.5016 11.9133 10.3173 11.6144C10.1339 11.3192 10.2969 11.1523 10.4522 11.0047C10.5949 10.869 10.7665 10.6633 10.9257 10.4844C11.077 10.3056 11.1256 10.1856 11.2361 9.99176C11.338 9.78232 11.2855 9.61909 11.2079 9.47151C11.1303 9.32393 10.5055 7.86081 10.2444 7.27794C9.99512 6.69955 9.73406 6.77334 9.54199 6.77334C9.36246 6.75769 9.15393 6.75769 8.94617 6.75769C8.73842 6.75769 8.39897 6.83148 8.11282 7.11471C7.82667 7.4136 7.01841 8.12764 7.01841 9.57213C7.01841 11.0203 8.13712 12.4216 8.29235 12.631C8.45149 12.8248 10.4929 15.8062 13.6249 17.0875C14.372 17.3864 14.9521 17.5653 15.4053 17.7128C16.1524 17.9379 16.8344 17.9066 17.373 17.8328C17.9688 17.7397 19.2185 17.1143 19.4803 16.4159C19.7461 15.7131 19.7461 15.1309 19.6685 14.999C19.5908 14.8634 19.387 14.7896 19.0726 14.6577L19.0593 14.7314ZM13.3795 22.053H13.363C11.509 22.053 9.67605 21.5752 8.07519 20.6823L7.69967 20.4691L3.77985 21.4396L4.8335 17.8135L4.58028 17.4408C3.54701 15.8763 2.99589 14.0711 2.99589 12.2159C2.99589 6.80464 7.65499 2.39068 13.3873 2.39068C16.1641 2.39068 18.7692 3.41927 20.7292 5.28264C22.6891 7.13036 23.7709 9.60716 23.7709 12.2315C23.7631 17.6391 19.1079 22.053 13.3834 22.053H13.3795ZM22.2195 3.86573C19.8347 1.67589 16.6988 0.437866 13.363 0.437866C6.48296 0.437866 0.880751 5.74103 0.876831 12.2584C0.876831 14.3394 1.44834 16.3697 2.54276 18.1668L0.770996 24.2891L7.39393 22.6471C9.21899 23.5825 11.273 24.0833 13.3638 24.0871H13.3677C20.2517 24.0871 25.8539 18.7839 25.8578 12.2621C25.8578 9.10629 24.5635 6.13607 22.2038 3.90374L22.2195 3.86573Z" fill="#ECCAC3"/>
</svg>
