<svg width="60" height="41" viewBox="0 0 60 41" fill="none" xmlns="http://www.w3.org/2000/svg">
<path d="M48.358 16.8731H46.8627V16.7963H30.155V24.2037H40.6465C39.1159 28.5157 35.003 31.6111 30.155 31.6111C24.0037 31.6111 19.0165 26.6361 19.0165 20.5C19.0165 14.3639 24.0037 9.38885 30.155 9.38885C32.9943 9.38885 35.5775 10.4574 37.5444 12.2027L42.7953 6.96478C39.4797 3.88237 35.0448 1.98145 30.155 1.98145C19.9029 1.98145 11.5908 10.2731 11.5908 20.5C11.5908 30.7268 19.9029 39.0185 30.155 39.0185C40.407 39.0185 48.7191 30.7268 48.7191 20.5C48.7191 19.2583 48.591 18.0463 48.358 16.8731Z" fill="#FFC107"/>
<path d="M13.7314 11.8805L19.8307 16.3426C21.481 12.2666 25.4779 9.38885 30.1551 9.38885C32.9945 9.38885 35.5777 10.4574 37.5446 12.2027L42.7955 6.96478C39.4799 3.88237 35.0449 1.98145 30.1551 1.98145C23.0247 1.98145 16.8409 5.99719 13.7314 11.8805Z" fill="#FF3D00"/>
<path d="M30.1547 39.0185C34.9498 39.0185 39.3068 37.1879 42.601 34.2111L36.8554 29.3611C34.9915 30.7694 32.6747 31.6111 30.1547 31.6111C25.3261 31.6111 21.2262 28.5398 19.6817 24.2537L13.6279 28.9064C16.7003 34.9037 22.9397 39.0185 30.1547 39.0185Z" fill="#4CAF50"/>
<path d="M48.3579 16.8731H46.8625V16.7963H30.1548V24.2037H40.6463C39.9112 26.275 38.5755 28.0611 36.8527 29.362C36.8537 29.3611 36.8546 29.3611 36.8555 29.3602L42.6011 34.2101C42.1946 34.5787 48.7189 29.7592 48.7189 20.5C48.7189 19.2583 48.5908 18.0463 48.3579 16.8731Z" fill="#1976D2"/>
</svg>
