<svg width="28" height="25" viewBox="0 0 28 25" fill="none" xmlns="http://www.w3.org/2000/svg">
<path d="M27.1552 12.1581C27.1552 5.49903 21.1497 0.104126 13.7481 0.104126C6.34157 0.104126 0.341064 5.49903 0.341064 12.1581C0.341064 18.173 5.24219 23.1604 11.6533 24.0637V15.6432H8.24872V12.1589H11.6533V9.50171C11.6533 6.48143 13.6518 4.81346 16.7153 4.81346C18.1825 4.81346 19.7185 5.04852 19.7185 5.04852V8.01455H18.025C16.3625 8.01455 15.843 8.94496 15.843 9.89798V12.1581H19.5609L18.9635 15.6425H15.843V24.0629C22.2491 23.1596 27.1552 18.1723 27.1552 12.1573V12.1581Z" fill="#ECCAC3"/>
</svg>
