<svg width="24" height="25" viewBox="0 0 24 25" fill="none" xmlns="http://www.w3.org/2000/svg">
<path d="M12.1013 0.390503C8.90524 0.390503 8.50693 0.406228 7.25614 0.460144C6.00021 0.523046 5.15068 0.721486 4.40109 1.01802C3.62798 1.32654 2.96952 1.73615 2.31914 2.40261C1.66435 3.06532 1.25869 3.73627 0.960322 4.52404C0.669305 5.28785 0.474558 6.15349 0.412827 7.43324C0.356241 8.7085 0.344482 9.11362 0.344482 12.3703C0.344482 15.6269 0.359915 16.0328 0.412827 17.3073C0.474558 18.5833 0.669305 19.4527 0.960322 20.2165C1.2631 21.0043 1.66508 21.6752 2.31914 22.3379C2.96952 23.0052 3.62798 23.4185 4.40109 23.7225C5.15068 24.0153 6.00389 24.2175 7.25614 24.2804C8.50767 24.3381 8.90524 24.3501 12.1013 24.3501C15.2973 24.3501 15.6956 24.3343 16.9464 24.2804C18.1987 24.2175 19.0519 24.0146 19.8015 23.7225C20.5746 23.414 21.2331 23.0044 21.8834 22.3379C22.5382 21.6752 22.9439 21.008 23.2423 20.2165C23.5296 19.4527 23.728 18.5833 23.7897 17.3073C23.8463 16.0321 23.8581 15.6269 23.8581 12.3703C23.8581 9.11362 23.8427 8.70775 23.7897 7.43324C23.728 6.15724 23.5289 5.28335 23.2423 4.52404C22.9395 3.73627 22.5375 3.06532 21.8834 2.40261C21.2331 1.7354 20.5783 1.32205 19.8015 1.01802C19.0519 0.721486 18.1987 0.523046 16.9464 0.460144C15.6949 0.402484 15.2973 0.390503 12.1013 0.390503ZM12.1013 2.54713C15.24 2.54713 15.6148 2.56286 16.8553 2.61677C17.9995 2.67144 18.6227 2.86613 19.0365 3.03088C19.5884 3.24879 19.9742 3.50638 20.3916 3.92722C20.8009 4.34432 21.0537 4.74195 21.2676 5.30432C21.4293 5.72591 21.6203 6.36092 21.674 7.52685C21.7269 8.79087 21.7423 9.17352 21.7423 12.371C21.7423 15.5685 21.7269 15.9512 21.6696 17.2152C21.6079 18.3811 21.4168 19.0161 21.2558 19.4377C21.0332 20.0001 20.7848 20.3932 20.3747 20.8186C19.961 21.2357 19.5671 21.4933 19.0196 21.7112C18.611 21.8759 17.979 22.0706 16.8303 22.1253C15.5832 22.1792 15.2158 22.1949 12.069 22.1949C8.92215 22.1949 8.55543 22.1792 7.30685 22.1208C6.16262 22.0579 5.53135 21.8632 5.11761 21.6992C4.55909 21.4723 4.17621 21.2192 3.76614 20.8013C3.3524 20.3798 3.0893 19.9784 2.88647 19.4205C2.72186 19.0042 2.53373 18.3602 2.47273 17.1897C2.43084 15.934 2.411 15.5446 2.411 12.3531C2.411 9.16304 2.43084 8.7729 2.47273 7.50139C2.53373 6.33097 2.72186 5.68847 2.88647 5.27062C3.0893 4.70077 3.35313 4.31137 3.76614 3.88978C4.17548 3.47268 4.55909 3.20311 5.11761 2.99194C5.53135 2.82794 6.14719 2.63325 7.29583 2.57484C8.54294 2.52916 8.91039 2.51269 12.0528 2.51269L12.1013 2.54713ZM12.1013 6.22164C8.76414 6.22164 6.06562 8.97508 6.06562 12.3718C6.06562 15.7722 8.76782 18.5219 12.1013 18.5219C15.4384 18.5219 18.137 15.7685 18.137 12.3718C18.137 8.97134 15.4348 6.22164 12.1013 6.22164ZM12.1013 16.3653C9.93483 16.3653 8.18211 14.5793 8.18211 12.3718C8.18211 10.1642 9.93483 8.37827 12.1013 8.37827C14.2678 8.37827 16.0205 10.1642 16.0205 12.3718C16.0205 14.5793 14.2678 16.3653 12.1013 16.3653ZM19.7912 5.97602C19.7912 6.77203 19.1555 7.41452 18.378 7.41452C17.5968 7.41452 16.9663 6.77128 16.9663 5.97602C16.9663 5.18451 17.6012 4.54052 18.378 4.54052C19.1548 4.54052 19.7912 5.18451 19.7912 5.97602Z" fill="#ECCAC3"/>
</svg>
