<svg width="896" height="839" viewBox="0 0 896 839" fill="none" xmlns="http://www.w3.org/2000/svg">
<mask id="path-1-inside-1_601_863" fill="white">
<path d="M895.874 832.715C749.409 883.301 670.433 590.674 334.668 472.763C51.9015 373.463 165.695 42.6146 25.8736 -0.284453L895.874 -0.284461L895.874 832.715Z"/>
</mask>
<path d="M-15.3175 199.059C-0.363285 200.274 8.95718 201.033 13.5324 201.362C14.2709 201.415 17.4651 201.649 21.0192 201.801C22.0836 201.846 24.0714 201.924 26.5477 201.964C27.8136 201.984 29.6847 202.002 31.9482 201.978C33.981 201.957 37.7527 201.889 42.4704 201.591C44.887 201.438 48.3831 201.174 52.5826 200.695C56.4405 200.254 63.1466 199.381 71.3801 197.636C75.1113 196.807 83.4853 194.672 88.1149 193.325C94.1067 191.398 107.837 186.175 115.503 182.74C125.908 177.435 149.662 162.165 162.517 151.697C179.395 134.849 210.232 88.4883 221.711 58.6556C228.794 23.0679 224.326 -44.9485 214.304 -75.4726C203.681 -97.0339 180.042 -130.159 168.486 -142.232C159.762 -150.135 143.739 -162.47 136.686 -167.135C131.276 -170.432 121.485 -175.827 117.149 -177.994C107.741 -182.555 99.9162 -185.425 95.7362 -186.882C91.0696 -188.509 87.1724 -189.673 84.5653 -190.414C79.4631 -191.864 75.3574 -192.809 73.2515 -193.277C70.8645 -193.808 68.8928 -194.2 67.5895 -194.451C65.0375 -194.942 62.9916 -195.285 61.9534 -195.455C59.8243 -195.804 58.0908 -196.053 57.446 -196.145C56.0516 -196.344 54.5841 -196.54 54.3142 -196.577C52.7957 -196.781 53.1977 -196.733 54.0197 -196.607C54.4654 -196.538 56.0913 -196.286 58.3866 -195.858C59.5721 -195.637 61.4659 -195.27 63.8274 -194.751C65.9624 -194.282 69.9598 -193.366 74.9676 -191.943C77.5409 -191.211 81.158 -190.126 85.4445 -188.643C89.4794 -187.247 95.9425 -184.869 103.652 -181.312C107.614 -179.484 112.682 -176.988 118.421 -173.735C124.027 -170.557 131.584 -165.917 140.006 -159.578C148.17 -153.434 159.721 -143.773 171.539 -129.988C183.25 -116.328 198.459 -94.8432 208.713 -65.1709C213.938 -50.05 217.792 -33.0085 219.148 -14.414C220.512 4.27986 219.244 23.1252 215.339 41.5624C207.443 78.8417 190.391 107.366 174.276 126.996C158.658 146.02 142.517 158.517 131.223 166.101C119.617 173.894 109.196 179.118 101.757 182.461C87.3655 188.928 75.2824 192.277 69.0735 193.85C62.0753 195.624 56.2829 196.681 52.5429 197.294C45.2177 198.494 39.4648 199 36.8213 199.21C33.7352 199.455 31.3286 199.566 29.973 199.619C28.5227 199.676 27.445 199.697 26.8736 199.706C26.2731 199.715 25.919 199.716 25.8733 199.716L25.8739 -200.284C22.9037 -200.284 18.8557 -200.252 14.3573 -200.076C12.0744 -199.987 8.88633 -199.831 5.15142 -199.534C3.24089 -199.383 0.873175 -199.169 -1.82905 -198.865C-4.46903 -198.568 -7.99927 -198.12 -12.1315 -197.443C-14.2365 -197.098 -16.7018 -196.661 -19.4501 -196.107C-22.1767 -195.557 -25.4636 -194.836 -29.1688 -193.898C-32.8293 -192.97 -37.4128 -191.7 -42.6311 -189.984C-47.7515 -188.299 -54.4928 -185.856 -62.1891 -182.397C-66.1048 -180.638 -70.5714 -178.48 -75.4186 -175.857C-80.2477 -173.245 -85.7925 -169.988 -91.7629 -165.979C-97.7126 -161.984 -104.529 -156.944 -111.708 -150.687C-118.876 -144.438 -126.888 -136.555 -134.886 -126.813C-142.911 -117.038 -151.204 -105.044 -158.52 -90.6847C-165.895 -76.2078 -172.092 -59.6783 -175.98 -41.3181C-179.887 -22.8705 -181.156 -4.01457 -179.792 14.69C-178.434 33.295 -174.578 50.3473 -169.349 65.4789C-164.162 80.4898 -157.731 93.3158 -151.293 103.925C-144.875 114.502 -138.204 123.283 -132.135 130.362C-126.057 137.452 -120.165 143.32 -114.966 148.055C-109.749 152.808 -104.84 156.775 -100.53 160.019C-92.0774 166.38 -84.4847 171.043 -78.838 174.244C-73.0589 177.52 -67.9443 180.039 -63.9317 181.89C-59.8587 183.77 -56.2412 185.273 -53.2823 186.438C-50.2946 187.613 -47.6186 188.584 -45.3599 189.365C-40.9329 190.897 -37.1568 192.032 -34.4078 192.813C-31.5817 193.616 -29.1225 194.25 -27.1841 194.727C-25.2167 195.21 -23.4717 195.609 -22.0238 195.927C-19.189 196.55 -16.7676 197.023 -15.0133 197.35C-11.5803 197.991 -8.65168 198.458 -6.84267 198.736C-4.89 199.037 -3.16591 199.282 -1.94521 199.452C-0.723407 199.623 0.391892 199.773 0.933191 199.845C1.26994 199.891 1.38104 199.906 1.44581 199.915C1.52995 199.926 1.25768 199.889 0.814053 199.826C0.562376 199.79 -0.84136 199.59 -2.71687 199.283C-3.62831 199.134 -5.56651 198.81 -8.03156 198.336C-9.29135 198.093 -11.2248 197.708 -13.5788 197.185C-14.7854 196.917 -16.3089 196.566 -18.0667 196.132C-19.7857 195.708 -22.0957 195.114 -24.8101 194.342C-27.4063 193.604 -31.2938 192.443 -35.9523 190.819C-37.9476 190.112 -42.3179 188.478 -44.6869 187.543C-47.5382 186.372 -53.8744 183.581 -57.3453 181.939C-61.678 179.773 -71.4671 174.38 -76.8745 171.084C-83.9259 166.42 -99.9476 154.087 -108.671 146.185C-120.225 134.113 -143.863 100.989 -154.486 79.4287C-164.507 48.9057 -168.976 -19.1097 -161.892 -54.6964C-150.414 -84.5281 -119.577 -130.887 -102.701 -147.735C-89.8471 -158.202 -66.0942 -173.471 -55.6908 -178.775C-48.0268 -182.209 -34.2986 -187.432 -28.3094 -189.357C-23.6824 -190.704 -15.3113 -192.838 -11.5834 -193.666C-8.57483 -194.28 -3.05782 -195.281 -0.555037 -195.683C1.5329 -195.993 5.40682 -196.51 7.18935 -196.721C11.379 -197.2 14.8637 -197.463 17.2673 -197.615C19.7607 -197.772 21.8836 -197.859 23.4915 -197.91C25.1305 -197.962 26.553 -197.987 27.6923 -197.999C29.9167 -198.023 31.7423 -198.004 32.9558 -197.985C35.3273 -197.947 37.183 -197.874 38.0866 -197.835C39.9381 -197.756 41.2901 -197.67 41.561 -197.652C42.012 -197.624 42.2504 -197.606 42.1525 -197.613C41.9486 -197.628 41.3228 -197.674 40.0163 -197.776C38.7667 -197.874 37.137 -198.004 35.0212 -198.173C30.7781 -198.514 24.9809 -198.985 17.0648 -199.628L-15.3175 199.059ZM334.668 472.763L202.134 850.168L202.134 850.168L334.668 472.763ZM895.874 832.715L1026.46 1210.8L1295.87 1117.75L1295.87 832.715L895.874 832.715ZM895.874 -0.284461L1295.87 -0.284526L1295.87 -400.284L895.874 -400.284L895.874 -0.284461ZM25.8736 -0.284453L25.8736 -400.284L-91.4535 382.122L25.8736 -0.284453ZM202.134 850.168C276.976 876.45 325.998 919.877 400.716 996.043C426.92 1022.75 495.3 1096.27 571.747 1147.22C671.266 1213.56 834.648 1277.05 1026.46 1210.8L765.291 454.631C812.931 438.177 867.991 433.512 922.467 444.485C971.936 454.45 1003.97 473.895 1015.48 481.565C1025.43 488.2 1025.62 490.67 971.801 435.808C886.474 348.829 728.125 186.986 467.202 95.3574L202.134 850.168ZM1295.87 832.715L1295.87 -0.284526L495.874 -0.284396L495.874 832.716L1295.87 832.715ZM-91.4535 382.122C-239.772 336.615 -282.922 213.578 -284.496 209.049C-285.963 204.826 -284.778 207.246 -280.12 228.333C-277.169 241.692 -269.353 279.319 -262.061 309.382C-246.133 375.043 -215.69 483.265 -143.18 589.087C-64.4185 704.033 50.264 796.835 202.134 850.168L467.202 95.3574C477.689 99.04 500.558 113.249 516.759 136.892C526.707 151.411 523.841 155.622 515.393 120.795C510.498 100.615 508.36 88.8795 501.051 55.7873C495.448 30.4223 486.067 -10.6985 471.187 -53.5224C442.788 -135.254 361.43 -315.735 143.201 -382.69L-91.4535 382.122ZM895.874 -400.284L25.8736 -400.284L25.8736 399.716L895.874 399.716L895.874 -400.284Z" fill="#B55B49" mask="url(#path-1-inside-1_601_863)"/>
</svg>
