<svg width="681" height="991" viewBox="0 0 681 991" fill="none" xmlns="http://www.w3.org/2000/svg">
<mask id="path-1-inside-1_724_1205" fill="white">
<path d="M741.441 110.254C788.425 -110.268 181.413 -42.2684 43.9131 129.732C-93.5869 301.732 132.324 291.965 170.119 494.115C141.225 650.35 138.236 681.949 251.953 815.228C340.543 892.546 555.166 920.941 684.778 929.761C684.555 961.365 684.894 981.434 685.733 985.661C690.328 1008.79 749.48 944.22 778.833 933.132C787.549 932.943 791.162 932.438 788.425 931.79C785.827 931.175 782.572 931.72 778.833 933.132C762.562 933.485 728.509 932.737 684.778 929.761C685.931 766.431 702.074 295.025 741.441 110.254Z"/>
</mask>
<path d="M741.441 110.254L1132.66 193.606L741.441 110.254ZM43.9131 129.732L-268.523 -120.036V-120.036L43.9131 129.732ZM170.119 494.115L563.306 420.603L576.975 493.716L563.449 566.856L170.119 494.115ZM251.953 815.228L-11.0671 1116.59L-33.2375 1097.24L-52.3375 1074.86L251.953 815.228ZM788.425 931.79L880.563 542.546L880.564 542.547L788.425 931.79ZM685.733 985.661L1078.06 907.709L1078.06 907.709L685.733 985.661ZM350.222 26.9025C336.609 90.7958 343.061 178.987 395.86 259.699C441.647 329.69 498.364 357.19 517.194 365.07C537.685 373.645 546.42 373.081 535.733 371.955C526.96 371.03 511.029 370.398 488.621 371.901C442.214 375.013 391.56 385.624 352.711 399.575C333.813 406.362 324.038 411.687 321.855 413.003C317.82 415.436 334.825 406.423 356.349 379.499L-268.523 -120.036C-164.693 -249.918 -16.6413 -317.806 82.3223 -353.346C194.492 -393.628 318.436 -418.484 435.096 -426.307C541.772 -433.46 689.984 -429.846 826.024 -372.916C897.304 -343.087 994.809 -286.065 1065.34 -178.254C1142.88 -59.7231 1158.02 74.5822 1132.66 193.606L350.222 26.9025ZM356.349 379.499C344.779 393.972 410.415 322.162 398.625 194.124C392.802 130.887 370.077 82.8853 351.646 53.7046C335.642 28.3667 321.316 14.944 325.122 18.7766C325.154 18.8085 516.11 168.167 563.306 420.603L-223.068 567.626C-213.666 617.913 -154.563 671.08 -242.561 582.458C-270.79 554.028 -381.649 445.098 -398.005 267.48C-414.662 86.5804 -325.703 -48.5087 -268.523 -120.036L356.349 379.499ZM563.449 566.856C561.677 576.44 560.149 584.762 558.786 592.39C557.427 599.991 556.337 606.316 555.448 611.758C554.561 617.193 553.956 621.255 553.542 624.292C553.13 627.322 552.97 628.879 552.932 629.289C552.839 630.265 553.422 624.863 553.087 615.27C552.915 610.353 552.506 604.408 551.671 597.63C550.832 590.82 549.611 583.569 547.923 576.017C546.233 568.459 544.195 561.135 541.882 554.139C539.576 547.166 537.144 540.969 534.8 535.622C530.146 525.008 526.201 518.586 525.263 517.103C524.472 515.851 525.856 518.176 531.28 525.205C536.691 532.217 544.585 541.934 556.244 555.599L-52.3375 1074.86C-108.484 1009.05 -199.146 901.128 -232.808 750.543C-264.114 610.499 -233.166 475.201 -223.211 421.374L563.449 566.856ZM514.974 513.864C489.761 491.859 473.806 487.782 485.719 492.488C494.659 496.021 512.122 501.606 539.209 507.586C593.772 519.631 658.398 527.041 711.937 530.685L657.62 1328.84C581.547 1323.66 474.055 1312.46 366.756 1288.78C277.99 1269.18 114.753 1226.4 -11.0671 1116.59L514.974 513.864ZM711.937 530.685C729.175 531.858 743.85 532.545 754.956 532.902C767.118 533.293 771.888 533.189 770.151 533.226L787.514 1333.04C754.962 1333.74 707.994 1332.27 657.62 1328.84L711.937 530.685ZM770.152 533.226C769.417 533.242 766.58 533.308 762.322 533.543C760.038 533.669 748.2 534.295 732.5 536.491C726.144 537.381 706.245 540.227 681.333 547.182C669.505 550.484 643.998 558.102 613.703 572.889C595.485 581.782 512.686 621.882 451.84 717.498C415.96 773.883 386.531 852.076 389.53 945.086C392.474 1036.38 425.573 1108.55 458.432 1156.92C515.13 1240.37 587.221 1277.84 604.23 1286.71C650.739 1310.96 691.479 1319.9 696.285 1321.03L880.564 542.547C886.055 543.846 927.28 552.938 974.081 577.339C991.236 586.283 1063.43 623.829 1120.17 707.361C1153.06 755.767 1186.17 827.964 1189.11 919.3C1192.12 1012.35 1162.68 1090.57 1126.77 1146.99C1065.88 1242.68 982.99 1282.85 964.633 1291.81C934.2 1306.67 908.508 1314.35 896.449 1317.72C871.073 1324.8 850.529 1327.77 843.347 1328.77C815.748 1332.64 791.206 1332.96 787.514 1333.04L770.152 533.226ZM696.286 1321.03C756.565 1335.3 808.054 1332.47 842.183 1327.45C876.55 1322.41 903.379 1313.67 920.188 1307.32L637.477 558.942C667.702 547.523 762.1 514.505 880.563 542.546L696.286 1321.03ZM920.19 1307.32C951.742 1295.4 972.973 1282.25 979.103 1278.4C983.51 1275.64 986.712 1273.45 988.452 1272.24C990.24 1270.99 991.267 1270.23 991.33 1270.18C991.411 1270.12 990.981 1270.44 989.828 1271.33C988.659 1272.23 987.182 1273.39 985.021 1275.09C981.783 1277.64 973.922 1283.86 966.854 1289.3C962.729 1292.47 917.937 1328.63 861.399 1353.91C843.061 1362.11 741.895 1409.02 610.844 1382.62C531.174 1366.57 449.301 1324.81 385.702 1251.85C326.485 1183.93 302.99 1111.86 293.402 1063.61L1078.06 907.709C1069.05 862.347 1046.56 792.49 988.726 726.153C926.511 654.788 846.409 614.004 768.854 598.378C642.032 572.826 546.471 618.396 534.783 623.624C491.545 642.962 464.237 666.619 479.144 655.154C481.592 653.272 483.633 651.645 490.355 646.356C495.663 642.18 504.27 635.426 513.768 628.359C522.109 622.153 571.701 583.79 637.475 558.942L920.19 1307.32ZM293.402 1063.61C288.982 1041.37 287.411 1023.29 286.977 1018.35C286.285 1010.47 285.903 1003.73 285.683 999.272C285.238 990.239 285.031 981.581 284.915 974.785C284.676 960.729 284.666 944.234 284.788 926.939L1084.77 932.584C1084.67 946.892 1084.72 956.234 1084.8 961.169C1084.85 963.87 1084.87 962.997 1084.71 959.903C1084.64 958.416 1084.42 954.181 1083.91 948.33C1083.64 945.329 1083.19 940.656 1082.47 934.875C1081.82 929.669 1080.49 919.918 1078.06 907.709L293.402 1063.61ZM284.788 926.939C285.415 838.185 289.974 672.911 299.414 505.524C308.319 347.629 323.181 153.822 350.222 26.9025L1132.66 193.606C1120.33 251.458 1107.44 385.739 1098.14 550.572C1089.38 705.913 1085.29 858.008 1084.77 932.584L284.788 926.939Z" fill="#B55B49" mask="url(#path-1-inside-1_724_1205)"/>
</svg>
