<svg width="684" height="954" viewBox="0 0 684 954" fill="none" xmlns="http://www.w3.org/2000/svg">
<path d="M378.588 488.683L378.471 489.442L378.587 490.201C389.79 563.54 395.753 606.563 388.321 646.816C380.93 686.844 360.178 724.582 316.409 786.715C283.139 821.691 225.839 846.052 163.638 862.676C103.688 878.699 39.9871 887.333 -9.24252 891.616C-10.3878 734.125 -22.9155 300.79 -53.0721 129.425C-57.4485 104.557 -54.1586 84.1582 -45.2181 67.6119C-36.2553 51.0243 -21.3653 37.8512 -1.7699 27.9233C37.5753 7.98932 95.0553 1.58202 157.664 6.66489C220.141 11.737 287.069 28.1991 344.906 53.346C402.856 78.5414 451.09 112.196 476.891 151.271C503.18 191.084 511.535 219.56 509.775 242.701C508.016 265.825 496.098 284.667 479.232 305.232C474.27 311.282 468.905 317.445 463.315 323.866C431.025 360.96 391.258 406.642 378.588 488.683ZM-70.6582 905.172C-57.5486 904.895 -39.8746 904.078 -19.1797 902.469C-19.1279 914.801 -19.1586 925.002 -19.2674 932.74C-19.3948 941.798 -19.6296 947.027 -19.8789 948.546C-19.8965 948.653 -19.9141 948.75 -19.9315 948.837C-20.3929 948.693 -21.103 948.414 -22.1142 947.867C-26.5992 945.438 -32.9006 940.051 -40.337 933.127C-43.1312 930.525 -46.0828 927.71 -49.0908 924.84C-53.7959 920.352 -58.6392 915.732 -63.2345 911.592C-65.7096 909.362 -68.2 907.189 -70.6582 905.172ZM-20.1505 949.574C-20.1515 949.571 -20.1416 949.548 -20.1173 949.513C-20.1373 949.559 -20.1495 949.577 -20.1505 949.574Z" stroke="#B55B49" stroke-width="10"/>
<path d="M161.581 655.634L160.697 655.474L159.813 655.633C81.3735 669.65 35.465 677.086 -7.47931 667.81C-50.2227 658.577 -90.5785 632.628 -157.073 577.827C-194.694 535.988 -220.84 463.962 -238.648 386.01C-255.944 310.304 -265.198 229.856 -269.745 168.017C-186.525 167.319 -31.0339 163.13 127.019 154.516C288.4 145.721 452.865 132.295 545.703 113.182C572.178 107.731 593.894 111.812 611.58 122.992C629.382 134.245 643.6 153.009 654.325 177.775C675.818 227.403 682.661 299.711 677.214 378.198C671.777 456.558 654.132 540.473 627.179 612.995C600.169 685.674 564.066 746.218 522.153 778.595C479.509 811.536 449.121 821.907 424.546 819.72C399.943 817.531 379.797 802.668 357.723 781.488C351.258 775.286 344.672 768.578 337.811 761.589C298.179 721.223 249.351 671.491 161.581 655.634ZM-283.476 90.8383C-283.204 107.618 -282.307 130.78 -280.469 158.089C-293.849 158.157 -304.902 158.119 -313.262 157.982C-317.987 157.904 -321.824 157.795 -324.721 157.657C-327.736 157.514 -329.437 157.35 -330.092 157.224C-330.558 157.135 -330.842 157.033 -330.999 156.962C-331.028 156.406 -330.847 154.971 -329.606 152.289C-326.922 146.492 -321.06 138.494 -313.683 129.225C-310.885 125.71 -307.868 122.01 -304.798 118.245C-300.009 112.372 -295.089 106.339 -290.668 100.598C-288.147 97.3228 -285.71 94.0476 -283.476 90.8383Z" stroke="#B55B49" stroke-width="10"/>
</svg>
